<svg t="1613985529239" class="icon" viewBox="0 0 1024 1024" version="1.1" xmlns="http://www.w3.org/2000/svg" p-id="24469" width="200" height="200"><path d="M906.24 565.76H565.76v340.48c0 19.748571-24.137143 53.76-53.76 53.76-29.696 0-53.76-34.011429-53.76-53.76V565.76H117.76c-19.748571 0-53.76-24.137143-53.76-53.76 0-29.696 33.938286-53.76 53.76-53.76h340.48V117.76c0-19.748571 24.064-53.76 53.76-53.76 29.696 0 53.76 33.938286 53.76 53.76v340.48h340.48c19.748571 0 53.76 24.064 53.76 53.76 0 29.696-34.011429 53.76-53.76 53.76z" p-id="24470" fill="#999999"></path></svg>