<svg t="1613980169242" class="icon" viewBox="0 0 1433 1024" version="1.1" xmlns="http://www.w3.org/2000/svg" p-id="21278" width="200" height="200"><path d="M1286.656 31.744H146.944C68.096 31.744 0 99.84 0 178.688v663.04c0 82.432 68.096 146.944 146.944 146.944h1136.128c82.432 0 146.944-68.096 146.944-146.944V178.688C1433.6 99.84 1365.504 31.744 1286.656 31.744z m-318.976 501.76l394.24-344.064v655.872c0 14.336-3.584 25.088-10.752 35.84l-383.488-347.648z m318.976-430.08c17.92 0 35.84 7.168 50.176 17.92l-544.768 480.256c-21.504 17.92-46.592 28.672-75.264 28.672-28.672 0-57.344-10.752-75.264-28.672L100.352 121.344c14.336-10.752 28.672-17.92 50.176-17.92h1136.128zM78.848 873.984c-3.584-7.168-7.168-17.92-7.168-28.672V185.856l390.656 344.064-383.488 344.064z m68.096 46.592h-10.752l379.904-340.48 75.264 68.096c35.84 32.256 82.432 46.592 125.44 46.592 43.008 0 93.184-14.336 125.44-46.592l71.68-60.928 376.32 333.312H146.944z" p-id="21279" fill="#408ef3"></path></svg>