<svg t="1614070046938" class="icon" viewBox="0 0 1024 1024" version="1.1" xmlns="http://www.w3.org/2000/svg" p-id="4649" width="200" height="200"><path d="M948.190968 33.197419H532.810323c-32.701935 0-38.812903 14.369032-70.028388 47.070968L53.842581 487.886452a127.801806 127.801806 0 0 0 0 181.181935l318.100645 317.109678c50.209032 50.043871 131.633548 50.043871 181.677419 0l408.939355-407.618065c26.260645-26.260645 44.923871-39.308387 44.923871-72.010323V92.325161c0-32.701935-26.590968-59.127742-59.292903-59.127742zM508.20129 940.75871a64.495484 64.495484 0 0 1-90.838709 0L99.261935 623.814194a64 64 0 0 1 0-90.673549l45.914839-45.749677 407.948387 408.609032-44.923871 44.75871z m439.989678-463.938065c0 16.350968-15.029677 40.299355-31.050323 56.32l-318.100645 317.109678-408.443871-408.113549L508.20129 125.522581c14.534194-14.534194 37.821935-33.197419 54.172904-33.19742h356.087741c16.350968 0 29.729032 13.212903 29.729033 29.563871v354.931613zM621.832258 238.658065a127.801806 127.801806 0 0 0 0 181.181935c50.209032 50.043871 131.633548 50.043871 181.677419 0a127.801806 127.801806 0 0 0 0-181.181935 128.693677 128.693677 0 0 0-181.677419 0z m136.258065 135.927741a64.495484 64.495484 0 0 1-90.83871 0 64 64 0 0 1 0-90.673548 64.495484 64.495484 0 0 1 90.83871 0 64 64 0 0 1 0 90.673548z" fill="#ffffff" p-id="4650"></path></svg>